<?xml version="1.0" standalone="no"?><!DOCTYPE svg PUBLIC "-//W3C//DTD SVG 1.1//EN" "http://www.w3.org/Graphics/SVG/1.1/DTD/svg11.dtd"><svg t="1694837197540" class="icon" viewBox="0 0 1024 1024" version="1.1" xmlns="http://www.w3.org/2000/svg" p-id="4217" xmlns:xlink="http://www.w3.org/1999/xlink" width="128" height="128"><path d="M81.6 511.7a430.3 431.3 0 1 0 860.6 0 430.3 431.3 0 1 0-860.6 0Z" fill="#D3401E" p-id="4218"></path><path d="M730.8 900.8c-47.1 14.4-96.2 26.3-148.3 26.3-237.6 0-430.3-193.1-430.3-431.3 0-224.6 171.2-409 390-429.4 0 0 197.3 12.6 335.1 200.8 6.9 13.8 155 221-15.5 512.7-22.5 29.3-86.1 107.1-131 120.9z" fill="#E0572D" p-id="4219"></path><path d="M511.9 959.7c-246.2 0-446.6-200.8-446.6-447.6S265.6 64.5 511.9 64.5s446.6 200.8 446.6 447.6c-0.1 246.8-200.4 447.6-446.6 447.6z m0-862.5c-228.3 0-414 186.1-414 415 0 228.8 185.7 414.9 414 414.9s414-186.1 414-414.9c0-228.9-185.8-415-414-415z" fill="#AA2618" p-id="4220"></path><path d="M363.9 207.1a38.8 38.8 0 1 0 77.6 0 38.8 38.8 0 1 0-77.6 0Z" fill="#D3401E" p-id="4221"></path><path d="M547.8 300.3a38.8 38.8 0 1 0 77.6 0 38.8 38.8 0 1 0-77.6 0Z" fill="#D3401E" p-id="4222"></path><path d="M207.6 330.1a38.8 38.8 0 1 0 77.6 0 38.8 38.8 0 1 0-77.6 0Z" fill="#D3401E" p-id="4223"></path><path d="M737.2 380.5a38.8 38.8 0 1 0 77.6 0 38.8 38.8 0 1 0-77.6 0Z" fill="#D3401E" p-id="4224"></path><path d="M547.8 168.2a38.8 38.8 0 1 0 77.6 0 38.8 38.8 0 1 0-77.6 0Z" fill="#D3401E" p-id="4225"></path><path d="M698.5 245.9a38.8 38.8 0 1 0 77.6 0 38.8 38.8 0 1 0-77.6 0Z" fill="#D3401E" p-id="4226"></path><path d="M221 413.2s74.8-187.3 332.8-126.4c-17 2.6-221.2-27.3-332.8 126.4z" fill="#D3401E" p-id="4227"></path><path d="M161.2 624.1a351.8 304.1 0 1 0 703.6 0 351.8 304.1 0 1 0-703.6 0Z" fill="#FFDEC2" p-id="4228"></path><path d="M308.2 623.3a58.9 85.5 0 1 0 117.8 0 58.9 85.5 0 1 0-117.8 0Z" fill="#AA2618" p-id="4229"></path><path d="M273.3 617.4c7.9-38.9 39-67.9 76.1-67.9s68.3 29 76.1 67.9h0.5c0-47.2-34.3-85.5-76.6-85.5s-76.6 38.3-76.6 85.5" fill="#AA2618" p-id="4230"></path><path d="M635.3 623.3a58.9 85.5 0 1 0 117.8 0 58.9 85.5 0 1 0-117.8 0Z" fill="#AA2618" p-id="4231"></path><path d="M600.4 617.4c7.9-38.9 39-67.9 76.1-67.9s68.3 29 76.1 67.9h0.5c0-47.2-34.3-85.5-76.6-85.5s-76.6 38.3-76.6 85.5" fill="#AA2618" p-id="4232"></path><path d="M450 725.7a60.1 25.9 0 1 0 120.2 0 60.1 25.9 0 1 0-120.2 0Z" fill="#E0572D" p-id="4233"></path><path d="M221 753.3a80 25.9 0 1 0 160 0 80 25.9 0 1 0-160 0Z" fill="#FFB6B6" p-id="4234"></path><path d="M645 753.3a80 25.9 0 1 0 160 0 80 25.9 0 1 0-160 0Z" fill="#FFB6B6" p-id="4235"></path><path d="M492.8 711.2a17.3 7.4 0 1 0 34.6 0 17.3 7.4 0 1 0-34.6 0Z" fill="#FFFFFF" p-id="4236"></path><path d="M864.8 667.5c0-167.9-157.5-304.1-351.8-304.1S161.2 499.6 161.2 667.5v-43.4C161.2 456.2 318.7 320 513 320s351.8 136.1 351.8 304.1" fill="#AA2618" p-id="4237"></path></svg>