<?xml version="1.0" standalone="no"?><!DOCTYPE svg PUBLIC "-//W3C//DTD SVG 1.1//EN" "http://www.w3.org/Graphics/SVG/1.1/DTD/svg11.dtd"><svg t="1694877825094" class="icon" viewBox="0 0 1024 1024" version="1.1" xmlns="http://www.w3.org/2000/svg" p-id="40326" xmlns:xlink="http://www.w3.org/1999/xlink" width="128" height="128"><path d="M1022.098286 510.866286c-72.082286-43.044571-247.625143-145.115429-526.628572-306.249143l-22.418285 241.664-159.890286 43.885714L402.651429 579.657143l-9.581715 5.705143 369.92 370.066285c154.624-87.771429 259.072-253.952 259.072-444.562285z" fill="#D4CFE6" p-id="40327"></path><path d="M723.821714 882.249143a581.266286 581.266286 0 0 1-269.860571 101.046857c-9.984-1.097143-19.968-2.413714-29.915429-4.022857-17.664-2.852571-35.181714 30.061714-52.516571 25.6-117.906286-30.354286-221.476571-133.12-298.349714-222.793143a252.489143 252.489143 0 0 1 175.835428-153.965714 247.186286 247.186286 0 0 1 59.026286-6.948572h163.986286c19.382857 0 38.217143 2.157714 56.32 6.290286l2.742857 0.621714a249.819429 249.819429 0 0 1 66.377143 26.441143 251.721143 251.721143 0 0 1 126.354285 218.404572v9.325714z" fill="#FFBF65" p-id="40328"></path><path d="M562.797714 637.988571a171.885714 171.885714 0 0 1-121.709714 161.462858 172.982857 172.982857 0 0 1-223.817143-161.462858c10.349714-4.022857 20.955429-7.314286 31.744-9.874285a247.405714 247.405714 0 0 1 59.026286-6.948572h163.986286c19.382857 0 38.253714 2.157714 56.32 6.290286l2.742857 0.621714c10.788571 2.596571 21.357714 5.888 31.707428 9.910857z" fill="#EABE96" p-id="40329"></path><path d="M394.898286 807.168c-94.061714 0-175.689143-75.556571-177.590857-169.179429a247.405714 247.405714 0 0 1 90.770285-16.822857l86.820572 3.035429v182.966857z" fill="#FED8B2" p-id="40330"></path><path d="M479.853714 524.178286v110.226285a89.819429 89.819429 0 0 1-179.638857 0v-110.226285h179.638857z" fill="#FED8B2" p-id="40331"></path><path d="M479.853714 524.178286v110.226285a89.819429 89.819429 0 0 1-63.268571 85.796572c-8.594286 2.669714-12.544 4.022857-21.577143 4.022857l0.146286-200.045714h84.699428z" fill="#EABE96" p-id="40332"></path><path d="M188.598857 455.424a40.009143 40.009143 0 1 0 80.018286 0 40.009143 40.009143 0 0 0-80.018286 0z" fill="#FED8B2" p-id="40333"></path><path d="M512.950857 455.424a40.009143 40.009143 0 1 0 80.018286 0 40.009143 40.009143 0 0 0-80.018286 0z" fill="#EABE96" p-id="40334"></path><path d="M395.227429 622.153143h-8.996572a150.966857 150.966857 0 0 1-151.003428-150.966857V333.238857a150.966857 150.966857 0 0 1 151.003428-150.966857h8.996572a150.966857 150.966857 0 0 1 151.003428 150.966857v137.874286a150.930286 150.930286 0 0 1-151.003428 151.04z" fill="#F4E3C3" p-id="40335"></path><path d="M395.227429 182.162286h-0.219429v440.027428h0.219429a150.966857 150.966857 0 0 0 151.003428-151.003428V333.238857a150.930286 150.930286 0 0 0-151.003428-151.04z" fill="#FED8B2" p-id="40336"></path><path d="M307.346286 296.96c-49.444571 54.491429-13.458286 77.677714-66.633143 137.252571-50.578286-153.014857 27.428571-252.086857 161.865143-252.050285 134.436571 0.073143 203.812571 114.834286 148.845714 252.050285-29.037714-131.401143-173.019429-31.232-244.077714-137.252571z" fill="#6E4747" p-id="40337"></path><path d="M301.860571 437.723429a15.542857 15.542857 0 1 0 31.085715 0 15.542857 15.542857 0 0 0-31.085715 0z" fill="#59595B" p-id="40338"></path><path d="M448.512 437.723429a15.542857 15.542857 0 1 0 31.085714 0 15.542857 15.542857 0 0 0-31.085714 0z" fill="#272525" p-id="40339"></path><path d="M344.137143 514.304h101.522286a50.614857 50.614857 0 0 1-50.651429 50.834286c-27.977143 0-50.834286-22.747429-50.834286-50.834286z" fill="#FD8469" p-id="40340"></path><path d="M395.008 514.304h50.651429a50.614857 50.614857 0 0 1-50.651429 50.834286c-0.109714-12.324571-0.036571-39.314286 0-50.834286z" fill="#FC6F58" p-id="40341"></path><path d="M1004.836571 762.514286c-104.886857 157.220571-283.904 260.790857-487.094857 260.790857a588.068571 588.068571 0 0 1-146.212571-18.432 236.178286 236.178286 0 0 1 39.387428-255.707429 2693.046857 2693.046857 0 0 1 201.947429-201.910857c92.964571-83.529143 235.154286-80.384 323.766857 7.716572l3.108572 3.108571c11.483429 11.629714 21.577143 24.137143 30.208 37.302857a235.556571 235.556571 0 0 1 34.889142 167.131429z" fill="#E6F3FF" p-id="40342"></path><path d="M901.229714 621.129143c-57.746286-57.709714-175.908571-69.12-233.618285-11.410286l-70.070858 70.070857c-57.746286 57.746286-48.237714 164.644571 9.508572 222.354286 57.709714 57.746286 172.726857 62.464 230.436571 4.754286l70.107429-70.107429a147.821714 147.821714 0 0 0 0-209.042286l-6.363429-6.582857z" fill="#CFDBE6" p-id="40343"></path><path d="M587.008 637.988571a40.009143 40.009143 0 1 0 56.576 56.576 40.009143 40.009143 0 0 0-56.576-56.576z" fill="#FED8B2" p-id="40344"></path><path d="M816.347429 867.328a40.009143 40.009143 0 1 0 56.576 56.576 40.009143 40.009143 0 0 0-56.576-56.576z" fill="#EABE96" p-id="40345"></path><path d="M641.097143 876.141714l-6.4-6.363428a150.966857 150.966857 0 0 1 0-213.504l23.661714-23.698286a150.966857 150.966857 0 0 1 213.540572 0l6.363428 6.4a150.966857 150.966857 0 0 1 0 213.504l-23.588571 23.588571a150.930286 150.930286 0 0 1-213.577143 0.073143z" fill="#F4E3C3" p-id="40346"></path><path d="M878.336 638.902857l-0.146286-0.182857-237.275428 237.275429 0.182857 0.146285a150.966857 150.966857 0 0 0 213.504 0l23.661714-23.661714a150.930286 150.930286 0 0 0 0.073143-213.577143z" fill="#FED8B2" p-id="40347"></path><path d="M701.44 694.710857a15.542857 15.542857 0 1 0 30.061714-8.045714 15.542857 15.542857 0 0 0-30.025143 8.045714z" fill="#59595B" p-id="40348"></path><path d="M809.179429 783.36a15.542857 15.542857 0 1 0 21.942857 22.016 15.542857 15.542857 0 0 0-21.942857-21.979429z" fill="#272525" p-id="40349"></path><path d="M681.252571 763.757714l71.753143 71.753143a50.614857 50.614857 0 0 1-71.753143 0.146286 50.907429 50.907429 0 0 1 0-71.899429z" fill="#FD8469" p-id="40350"></path><path d="M717.202286 799.707429l35.803428 35.803428a50.614857 50.614857 0 0 1-71.753143 0.146286c8.630857-8.777143 27.757714-27.794286 35.949715-35.949714z" fill="#FC6F58" p-id="40351"></path></svg>