<?xml version="1.0" standalone="no"?><!DOCTYPE svg PUBLIC "-//W3C//DTD SVG 1.1//EN" "http://www.w3.org/Graphics/SVG/1.1/DTD/svg11.dtd"><svg t="1697504055985" class="icon" viewBox="0 0 1024 1024" version="1.1" xmlns="http://www.w3.org/2000/svg" p-id="1282" xmlns:xlink="http://www.w3.org/1999/xlink" width="128" height="128"><path d="M729.666 268.842c-23.123-30.714-58.661-55.133-103.029-71.023l5.115-39.297c4.955-28.893-14.536-56.463-43.5-61.57l-2.436-0.43c-13.997-2.538-28.236 0.655-39.932 8.816s-19.553 20.268-22.003 34.163l-8.69 38.597c-47.183-0.322-88.873 10.549-121.107 31.502-37.199 24.181-61.253 61.669-69.484 108.345-2.946 16.878-1.599 34.014 3.792 50.816l-10.501-1.852-24.972 141.625c-5.841 33.126-4.099 66.183 5.177 98.252l0.134 0.485c0.265 1.01 0.489 2.025 0.674 3.044l0.225-0.069 0.33 1.073-0.368 0.115a39.715 39.715 0 0 1-0.168 12.9 39.677 39.677 0 0 1-4.434 12.508l0.265 0.2-0.474 0.628-0.184-0.14a39.826 39.826 0 0 1-1.663 2.607l-0.288 0.405c-19.685 26.964-32.628 57.432-38.469 90.557-7.988 45.301-1.738 90.846 18.067 132.056 1.189 0.758 2.407 1.501 3.646 2.224l0.361 0.217c1.854 1.135 46.796 28.055 166.812 49.286 63.023 11.112 106.735 13.445 132.306 13.445 27.047 0 39.97-2.479 41.354-2.761l0.458-0.088c1.46-0.263 2.91-0.556 4.341-0.876 32.641-31.922 54.053-72.542 62.03-117.792 5.862-33.246 4.088-66.416-5.273-98.588l-0.127-0.434-0.106-0.439a39.716 39.716 0 0 1-0.517-16.347 39.718 39.718 0 0 1 6.075-15.18l0.251-0.377 0.268-0.365c19.801-27.031 32.813-57.593 38.675-90.837l24.973-141.625-10.472-1.847c10.85-13.931 18.022-29.539 21.108-46.356 8.172-46.753-1.555-90.127-28.24-125.573z" fill="#FFFFFF" p-id="1283"></path><path d="M292.331 333.336c3.923-22.661 24.864-38.03 46.474-34.22 0 0 78.474 24.313 203.222 46.31s208.795 26.194 208.795 26.194c21.527 3.869 35.949 25.472 31.967 48.051-3.923 22.661-24.864 38.03-46.474 34.22 0 0-82.363-3.901-207.813-26.021s-204.18-46.624-204.18-46.624c-21.551-3.728-35.973-25.332-31.991-47.91z" fill="#FAADB7" p-id="1284"></path><path d="M656.5 830.77c-9.2 28.25-24.57 53.85-45.35 75.39-7.8 1.25-58.47 7.83-165.1-10.97-105.72-18.7-151.29-41.92-158.75-46.02a197.018 197.018 0 0 1-12.14-36.41c14.93 9.43 31.91 16.16 50.37 19.41 39.34 6.94 77.74-3.28 107.52-25.27 0.06-0.04 0.12-0.09 0.16-0.13 1.31-0.96 2.58-1.94 3.84-2.95 0.02-0.01 0.03-0.02 0.04-0.02 34.1-25.41 78.19-37.24 123.37-29.27 39.26 6.91 72.63 27.61 96.04 56.24z" fill="#FADA17" p-id="1285"></path><path d="M656.5 830.77c-9.2 28.25-24.57 53.85-45.35 75.39-7.8 1.25-58.47 7.83-165.1-10.97-105.72-18.7-151.29-41.92-158.75-46.02a197.018 197.018 0 0 1-12.14-36.41c14.93 9.43 31.91 16.16 50.37 19.41 39.34 6.94 77.74-3.28 107.52-25.27 0.06-0.04 0.12-0.09 0.16-0.13 1.31-0.96 2.58-1.94 3.84-2.95 0.02-0.01 0.03-0.02 0.04-0.02 34.1-25.41 78.19-37.24 123.37-29.27 39.26 6.91 72.63 27.61 96.04 56.24z" fill="#FADA17" p-id="1286"></path><path d="M780.72 364.01c0.28-39.45-11.61-76.02-35.08-107.2-22.65-30.08-56.03-54.76-97.15-71.96l3.05-23.38c6.53-39.51-20.22-77.23-59.81-84.21l-2.35-0.42c-4.29-0.77-8.66-1.17-13.01-1.17-14.99 0-29.49 4.59-41.93 13.27-16 11.16-26.7 27.69-30.17 46.59l-5.15 22.88c-44.43 2.04-84.27 13.84-115.94 34.42-32.76 21.3-56.44 51.59-69.65 88.73-20.8 6.92-36.89 25.15-40.9 48.3-2.87 16.33 0.88 33.39 10.31 46.81a60.57 60.57 0 0 0 10.84 11.77l-20.56 116.62c-6.52 36.99-4.11 73.49 5.66 107.29 0.71 2.7 0.86 5.58 0.34 8.51-0.51 2.93-1.64 5.6-3.23 7.89-20.74 28.41-35.49 61.89-42.01 98.88-9.33 52.87-0.42 104.74 22.19 149.16 2.87 2.03 5.92 3.99 9.13 5.86 3.66 2.24 50.83 30.18 173.79 51.93 61.97 10.93 106.4 13.75 135.78 13.75 28.94 0 43.27-2.74 45.35-3.17 3.73-0.67 7.33-1.49 10.79-2.44 36.37-33.99 62.43-79.64 71.74-132.43 6.54-37.13 4.09-73.76-5.77-107.65a19.942 19.942 0 0 1 2.77-15.74c20.87-28.48 35.69-62.06 42.24-99.18l20.56-116.6c20.33-7.16 35.99-25.18 39.94-47.98 4.08-23.15-5.02-45.59-21.77-59.13zM404.98 226.37c28.46-18.5 65.87-28.28 108.18-28.28 0.63 0 1.26 0 1.89 0.01l16.11 0.11 12.23-54.32 0.19-0.92c1.5-8.55 6.39-16.1 13.75-21.23 5.69-3.97 12.27-6.07 19.04-6.07 1.96 0 3.94 0.18 5.97 0.55l2.44 0.43c18.12 3.19 30.35 20.46 27.26 38.49l-7.32 56.08 15.17 5.43c40.71 14.58 73.14 36.78 93.8 64.22 15.47 20.55 24.39 44.29 26.5 70.01-26.99-1.95-98.93-8.27-194.69-25.15-95.18-16.79-163.7-35.1-189.5-42.43 10.76-23.52 27.32-42.85 48.98-56.93z m-72.79 92.17c0.72 0 1.44 0.04 2.15 0.13 1.8 0.55 5.14 1.54 9.93 2.91 26.14 7.48 95.53 26.13 194.28 43.54 99.34 17.52 172.4 23.83 199.67 25.74 4.81 0.34 8.19 0.55 10.05 0.65 10.07 2.42 16.8 13.47 14.81 24.75-0.52 3.02-1.63 5.82-3.17 8.28-3.75 5.99-10.11 9.93-16.98 9.93-1.05 0-2.1-0.09-3.14-0.28l-1.26-0.22-1.27-0.06c-0.23-0.01-7.09-0.35-19.64-1.33-31.3-2.47-98.01-8.96-185.64-24.41-87.51-15.42-152.5-32.16-182.79-40.56-12.13-3.36-18.7-5.39-18.92-5.46l-1.25-0.39-1.29-0.22c-4.79-0.83-9.08-3.62-12.06-7.87a21.908 21.908 0 0 1-3.48-8.08c-0.61-2.86-0.68-5.87-0.15-8.84 1.79-10.38 10.46-18.21 20.15-18.21z m278.96 587.62c-3.43 0.56-15.18 2.17-36.28 2.17-24.78 0-67.24-2.28-128.81-13.14-105.72-18.7-151.29-41.92-158.75-46.02-5.26-11.82-9.32-24-12.15-36.41 14.93 9.43 31.9 16.16 50.36 19.41 39.35 6.94 77.75-3.28 107.53-25.27l0.16-0.13c1.31-0.96 2.58-1.94 3.84-2.95 0.01-0.01 0.03-0.02 0.04-0.02 34.1-25.41 78.19-37.24 123.36-29.28 39.28 6.93 72.65 27.63 96.05 56.25-9.2 28.25-24.57 53.85-45.35 75.39z m100.07-374.31c-0.02 0-0.05-0.01-0.07-0.01l-65-11.47c-5.42-0.95-10.63 2.7-11.58 8.12-0.96 5.41 2.69 10.63 8.11 11.58l65 11.46c0.02 0.01 0.05 0.01 0.07 0.01l-5.15 29.23c-0.63 3.57-1.36 7.11-2.17 10.61l-49.03-8.65c-5.41-0.95-10.63 2.7-11.58 8.12-0.96 5.41 2.69 10.63 8.11 11.58l46.97 8.28a194.566 194.566 0 0 1-17.71 38l-115.08-20.29c-5.41-0.95-10.63 2.7-11.58 8.11-0.96 5.42 2.69 10.63 8.11 11.59l106.46 18.77a59.435 59.435 0 0 0-7.77 20.64 59.55 59.55 0 0 0-0.27 19.07l-56.21-9.91c-5.42-0.96-10.63 2.69-11.59 8.11-0.95 5.41 2.7 10.63 8.11 11.58l64.71 11.41c5.31 24.8 5.75 50.15 1.27 75.55-0.24 1.39-0.5 2.77-0.78 4.15-0.36 1.86-0.75 3.7-1.18 5.54 0.42-1.84 0.82-3.69 1.18-5.54-26.33-27.5-60.8-45.99-98.64-52.66-24.84-4.38-49.76-3.58-74.08 2.39-23.4 5.75-45.1 15.97-64.5 30.38l-0.31 0.22-0.44 0.35c-1.23 0.98-2.25 1.76-3.21 2.47l-0.71 0.52-0.09 0.07c-26.62 19.43-59.12 26.97-91.59 21.25-20.21-3.56-39.23-12.26-55.01-25.15l-3.09-2.52c-1.3-16.59-0.49-33.43 2.47-50.24 5.31-30.09 17.06-57.76 34.93-82.23l0.29-0.4 0.29-0.42c0.43-0.62 0.85-1.26 1.26-1.9l0.11 0.09 0.26-0.34 0.15-0.21 0.22-0.29-0.18-0.14c3.94-6.41 6.6-13.43 7.92-20.92 1.32-7.5 1.22-15.01-0.29-22.4l0.21-0.07-0.09-0.29-0.02-0.08-0.05-0.16-0.13-0.43-0.14 0.04c-0.16-0.75-0.34-1.49-0.54-2.22l-0.12-0.49-0.14-0.48c-8.42-29.11-10-59.13-4.7-89.22l17.02-96.53 1.98-11.24c11.2 3.2 29.22 8.13 53.2 14.01 34.97 8.57 82.61 19.16 140.22 29.32 57.64 10.16 106.04 16.5 141.84 20.41 24.52 2.67 43.12 4.2 54.73 5.03l-1.97 11.17-8.41 47.67z" fill="#BD7800" p-id="1287"></path></svg>