<?xml version="1.0" standalone="no"?><!DOCTYPE svg PUBLIC "-//W3C//DTD SVG 1.1//EN" "http://www.w3.org/Graphics/SVG/1.1/DTD/svg11.dtd"><svg t="1694873170005" class="icon" viewBox="0 0 1024 1024" version="1.1" xmlns="http://www.w3.org/2000/svg" p-id="39162" xmlns:xlink="http://www.w3.org/1999/xlink" width="128" height="128"><path d="M223.578 312.517c-54.9 0-87.9 23.8-87.9 109.2 0 82.4 53.4 166.5 127.1 230.2 73.8 63.7 168 107.1 249.2 108 81.3-0.9 175.4-44.2 249.2-108 73.7-63.7 127.2-147.8 127.2-230.2 0-104.1-49.1-116.7-127.1-106.2-66.2 8.9-153.4 34.5-249.2 34.9-95.8-0.4-183-26-249.2-34.9-14.1-1.8-27.2-3-39.3-3m0-11.9c11.7 0 25.1 1 40.8 3.1 21.5 2.9 45 7.5 70 12.4 53.2 10.4 113.5 22.2 177.7 22.5 64.1-0.3 124.4-12.1 177.6-22.5 25-4.9 48.5-9.5 70-12.4 15.7-2.1 29.1-3.1 40.8-3.1 69 0 99.8 37.3 99.8 121.1 0 80-47.8 167.1-131.2 239.2-37.8 32.7-81 60.1-124.8 79.5-45.6 20.1-91.3 31-132.1 31.4h-0.3c-40.8-0.5-86.4-11.3-132.1-31.4-43.8-19.3-87-46.8-124.8-79.5-83.4-72.1-131.3-159.3-131.3-239.2 0-83.8 30.8-121.1 99.9-121.1z" fill="#00B08B" p-id="39163"></path><path d="M511.978 765.917c-40-0.4-84.9-11.1-129.8-30.9-43.3-19.1-85.9-46.2-123.3-78.5l-2.1-1.8v-343.2l3-1.7c0.9-0.5 23.5-13.2 66.8-26 39.7-11.7 105.2-25.7 191.4-25.7 86.3 0 148.5 14 185.5 25.7 40.4 12.8 60.1 25.6 60.9 26.1l2.7 1.8v342.9l-2.1 1.8c-37.4 32.3-80 59.4-123.3 78.5-44.8 19.8-89.6 30.5-129.7 31z" fill="#FFFFFF" p-id="39164"></path><path d="M518.078 264.117c-165.6 0-255.3 50.8-255.3 50.8v337c73.8 63.7 168 107.1 249.2 108 81.3-0.9 175.4-44.2 249.2-108v-337s-77.5-50.8-243.1-50.8m0-12c167.2 0 246.4 50.6 249.7 52.8l5.4 3.5v348.9l-4.1 3.6c-37.8 32.7-81 60.1-124.8 79.5-45.6 20.1-91.3 31-132.1 31.4h-0.2c-40.8-0.4-86.4-11.3-132.1-31.4-43.8-19.3-87-46.8-124.8-79.5l-4.1-3.6v-349.3l6.1-3.4c3.6-2.2 94.2-52.5 261-52.5z" fill="#00B08B" p-id="39165"></path><path d="M280.678 666.617c70.7 55.6 156.5 92.5 231.3 93.3 81.3-0.9 175.4-44.2 249.2-108v-328.5c-71.2-29.8-148-44-225.2-41.4-165.6 0-255.3 50.9-255.3 50.9v333.7z" fill="#C2F9DF" p-id="39166"></path><path d="M294.878 364.417c-2.4 0-4.7-1.5-5.6-3.9-1.2-3.1 0.4-6.5 3.5-7.7 74.7-28.1 153.1-41.6 232.9-40 77-2.3 152.2 11.2 223.7 40.1 3.1 1.2 4.5 4.7 3.3 7.8-1.2 3.1-4.7 4.5-7.8 3.3-69.9-28.3-143.6-41.5-219-39.2h-0.2c-78.4-1.5-155.3 11.7-228.6 39.3-0.8 0.1-1.5 0.3-2.2 0.3zM616.578 523.717h-95.6v-95.6c0-4.9-4-9-9-9s-9 4-9 9v95.6h-95.6c-4.9 0-9 4-9 9 0 4.9 4 9 9 9h95.6v95.6c0 4.9 4 9 9 9s9-4 9-9v-95.6h95.6c4.9 0 9-4 9-9-0.1-5-4.1-9-9-9z" fill="#00B08B" p-id="39167"></path></svg>