<?xml version="1.0" standalone="no"?><!DOCTYPE svg PUBLIC "-//W3C//DTD SVG 1.1//EN" "http://www.w3.org/Graphics/SVG/1.1/DTD/svg11.dtd"><svg t="1695660936660" class="icon" viewBox="0 0 1024 1024" version="1.1" xmlns="http://www.w3.org/2000/svg" p-id="4317" xmlns:xlink="http://www.w3.org/1999/xlink" width="128" height="128"><path d="M621.2096 910.6432h-398.336a109.8752 109.8752 0 0 1-109.7216-109.7728V225.28a109.824 109.824 0 0 1 109.7216-109.8752h398.336A109.824 109.824 0 0 1 730.9312 225.28v575.5904a109.8752 109.8752 0 0 1-109.7216 109.7728zM222.8736 161.4848A63.6928 63.6928 0 0 0 159.232 225.28v575.5904a63.744 63.744 0 0 0 63.6416 63.6928h398.336a63.744 63.744 0 0 0 63.6416-63.6928V225.28a63.6928 63.6928 0 0 0-63.6416-63.6416zM831.1296 890.88h-59.136a23.04 23.04 0 1 1 0-46.08h59.136c19.9168 0 35.84-14.2848 35.84-31.8976V410.2144c0-17.5616-16.1792-31.8976-35.84-31.8976h-59.136a23.04 23.04 0 0 1 0-46.08h59.136c45.312 0 81.92 34.9696 81.92 77.9776v402.7392c0.256 43.008-36.608 77.9264-81.92 77.9264z" fill="#f3ca7e" p-id="4318"></path><path d="M549.0688 309.3504H295.0144a23.04 23.04 0 1 1 0-46.08h254.0544a23.04 23.04 0 0 1 0 46.08zM549.0688 536.064H295.0144a23.04 23.04 0 1 1 0-46.08h254.0544a23.04 23.04 0 0 1 0 46.08zM549.0688 733.184H295.0144a23.04 23.04 0 0 1 0-46.08h254.0544a23.04 23.04 0 1 1 0 46.08z" fill="#f3ca7e" p-id="4319"></path></svg>