<?xml version="1.0" standalone="no"?><!DOCTYPE svg PUBLIC "-//W3C//DTD SVG 1.1//EN" "http://www.w3.org/Graphics/SVG/1.1/DTD/svg11.dtd"><svg t="1697116506022" class="icon" viewBox="0 0 1024 1024" version="1.1" xmlns="http://www.w3.org/2000/svg" p-id="2759" xmlns:xlink="http://www.w3.org/1999/xlink" width="128" height="128"><path d="M832.449 483.963h-27.63a310.397 310.397 0 0 0-55.969-98.344C691.99 318.152 606.99 275.314 512 275.314s-179.99 42.839-236.85 110.305C229.51 439.739 202 509.732 202 586.174v249.423c0 11.081 8.95 20.055 20 20.055h580c11.05 0 20-8.975 20-20.055v-41.634h10.449v-310z" fill="#FFFFFF" p-id="2760"></path><path d="M312 308.348c-22.056 0-40-17.944-40-40v-80c0-22.056 17.944-40 40-40h400c22.056 0 40 17.944 40 40v80c0 22.056-17.944 40-40 40H312z" fill="#A3D6FF" p-id="2761"></path><path d="M502.567 721.011c-3.022 0-5.904-0.625-8.567-1.858-7.075-3.273-12.431-9.149-15.081-16.544l-12.094-33.777c-5.278-14.738-3.148-30.515 5.844-43.286 8.839-12.554 22.652-19.754 37.897-19.754h26.86c15.245 0 29.058 7.199 37.897 19.753 8.993 12.771 11.125 28.549 5.849 43.288l-12.1 33.778a29.431 29.431 0 0 1-2.867 5.866 29 29 0 0 1-5.361 6.229l-0.322 0.273a28.918 28.918 0 0 1-6.533 4.179c-2.653 1.227-5.535 1.852-8.555 1.852-2.513 0-5.009-0.437-7.42-1.299a42.446 42.446 0 0 0-7.285-1.879 41.745 41.745 0 0 0-6.712-0.546c-4.805 0-9.518 0.815-14.025 2.423a22.498 22.498 0 0 1-5.426 1.21 22.23 22.23 0 0 1-1.999 0.092z" fill="#FAADB7" p-id="2762"></path><path d="M514.009 616.438c-27.252 0-49.424-22.331-49.424-49.779v-10h10c13.218 0 25.641 5.189 34.982 14.613 9.313 9.397 14.442 21.886 14.442 35.166v10h-10z m224.969-32.901c-18.672-0.642-30.907 9.325-37.344 17.047-6.438-7.721-18.672-17.71-37.345-17.047-6.438 0.321-14.159 1.283-15.763 7.4-1.604 7.08 6.759 13.197 18.031 20.276 1.283 0.642 2.567 1.283 3.208 1.925 1.925 0.963 4.513 2.567 7.401 4.192 4.513 2.567 16.405 9.005 17.068 12.234 0.963 4.513 4.192 5.155 5.476 5.155 0.962 0 1.925-0.321 2.567-0.642 0.642 0.321 1.604 0.642 2.567 0.642 1.283 0 4.513-0.642 4.513-5.155 0.963-3.208 12.555-9.646 17.068-12.234 3.208-1.604 5.796-2.887 7.4-4.192 0.642-0.321 1.925-0.962 3.208-1.925 11.272-7.08 19.635-13.197 17.71-20.276-1.606-6.095-9.327-7.057-15.765-7.4z" fill="#C9F641" p-id="2763"></path><path d="M702.489 711.712c-30.327 0-55-23.051-55-51.385s24.673-51.386 55-51.386 55 23.052 55 51.386-24.673 51.385-55 51.385z" fill="#FADA17" p-id="2764"></path><path d="M537.43 595.79h-4.36c-0.14-0.82-0.3-1.63-0.49-2.43 0.5-0.73 1.06-1.46 1.65-2.19 7.37-9.02 20.77-11.04 20.86-11.05 5.47-0.73 9.32-5.76 8.59-11.23-0.73-5.48-5.76-9.33-11.23-8.6-0.76 0.1-16.26 2.29-28.48 12.88a59.445 59.445 0 0 0-7.3-8.94c-11.23-11.33-26.18-17.57-42.09-17.57h-20v20c0 17.06 7.15 32.48 18.59 43.38-16.49 14.75-24.1 38.86-15.76 62.16l12.1 33.78c3.61 10.08 11.04 17.97 20.29 22.25 4.04 1.87 8.39 2.78 12.76 2.78 0.98 0 1.96-0.05 2.94-0.14 2.66-0.25 5.29-0.83 7.85-1.74a31.67 31.67 0 0 1 10.64-1.84h0.04c1.7 0 3.39 0.13 5.07 0.41 1.89 0.31 3.74 0.79 5.55 1.43 3.49 1.24 7.14 1.88 10.78 1.88 4.37 0 8.73-0.91 12.77-2.78 3.17-1.47 6.13-3.37 8.79-5.63h0.01c2.97-2.52 5.55-5.48 7.65-8.76 1.56-2.47 2.85-5.1 3.84-7.86l12.1-33.78c13.31-37.18-13.99-76.41-53.16-76.41z m-34.97-17.48a39.99 39.99 0 0 1 8.49 12.74c-0.74 1.65-1.37 3.24-1.9 4.76-6.28 0.16-12.25 1.34-17.77 3.35a39.824 39.824 0 0 1-16.7-32.5c10.89 0 20.75 4.45 27.88 11.65z m69.3 87.15l-12.11 33.79c-0.48 1.35-1.11 2.65-1.87 3.83-0.96 1.51-2.12 2.87-3.46 4.05l-0.27 0.22c-1.29 1.1-2.73 2.02-4.25 2.73-1.34 0.62-2.81 0.93-4.37 0.93-1.36 0-2.72-0.24-4.09-0.73a53.063 53.063 0 0 0-9.02-2.32c-2.73-0.45-5.52-0.67-8.33-0.67-5.93 0-11.77 1.01-17.34 2.99-1 0.36-2.02 0.59-3.01 0.68-0.36 0.03-0.72 0.05-1.08 0.05-1.56 0-3.02-0.31-4.36-0.93-4.62-2.14-8.13-5.99-9.87-10.84l-12.09-33.78c-4.17-11.63-2.49-24.08 4.61-34.16 2.74-3.9 6.1-7.14 9.89-9.63 5.79-3.82 12.61-5.88 19.83-5.88h26.86c11.94 0 22.78 5.65 29.72 15.51 7.09 10.08 8.77 22.53 4.61 34.16z m175.95-49.22c9.61-6.41 20.09-15.37 16.7-27.85-3.61-13.71-19.08-14.53-24.9-14.84l-0.19-0.01c-17.07-0.57-29.55 6.16-37.69 12.96-8.14-6.81-20.64-13.54-37.7-12.96l-0.14 0.01c-5.83 0.29-21.32 1.06-24.94 14.85l-0.08 0.33c-2.89 12.76 7.9 21.49 17.91 28.05-11.85 11.12-19.19 26.52-19.19 43.55 0 33.9 29.1 61.38 65 61.38s65-27.48 65-61.38c0-17.31-7.58-32.94-19.78-44.09z m-9.17-22.71c2.44 0.13 4.09 0.34 5.21 0.55-2.01 2-6.04 4.9-12.04 8.67l-0.68 0.47c-0.56 0.42-1.26 0.77-1.68 0.98l-0.22 0.11a67.394 67.394 0 0 0-12.79-3.97c5.41-3.98 12.72-7.12 22.2-6.81z m-73.83 0c9.73-0.32 17.17 2.98 22.61 7.09a67.21 67.21 0 0 0-12.19 4.01c-1.2-0.87-2.46-1.54-3.66-2.14-5.78-3.64-9.7-6.48-11.73-8.46 1.11-0.2 2.7-0.39 4.97-0.5z m37.78 108.18c-24.81 0-45-18.56-45-41.38 0-13.3 6.86-25.16 17.5-32.74 6.62-4.72 14.7-7.77 23.51-8.49 1.32-0.11 2.65-0.16 3.99-0.16 0.96 0 1.92 0.03 2.86 0.08 8.98 0.52 17.24 3.47 24.03 8.14 10.99 7.56 18.11 19.62 18.11 33.17 0 22.82-20.19 41.38-45 41.38z m144.19-218.45c-13.89-45.45-36.51-86.98-67.25-123.43a350.236 350.236 0 0 0-38.41-38.98c18.46-10.25 30.98-29.94 30.98-52.5v-80c0-33.09-26.92-60-60-60H312c-33.08 0-60 26.91-60 60v80c0 22.56 12.52 42.25 30.98 52.5a352.156 352.156 0 0 0-38.42 38.99c-26.11 30.97-46.5 65.88-60.59 103.74C169.39 502.76 162 544.01 162 586.17V835.6c0 33.11 26.92 60.05 60 60.05h580c33.08 0 60-26.94 60-60.05V586.17c0-35.04-5.15-69.67-15.32-102.91zM292 188.35c0-11 9-20 20-20h256.5v53.99a9.93 9.93 0 0 0 2.94 7.06 9.93 9.93 0 0 0 7.06 2.94c5.5 0 10-4.5 10-10v-53.99H618v53.99a9.93 9.93 0 0 0 2.94 7.06 9.93 9.93 0 0 0 7.06 2.94c5.5 0 10-4.5 10-10v-53.99h29.5v53.99a9.93 9.93 0 0 0 2.94 7.06 9.93 9.93 0 0 0 7.06 2.94c5.5 0 10-4.5 10-10v-53.99H712c11 0 20 9 20 20v80c0 11-9 20-20 20H312c-11 0-20-9-20-20v-80zM822 835.6c0 11.08-8.95 20.05-20 20.05H222c-11.05 0-20-8.97-20-20.05V586.17c0-76.44 27.51-146.43 73.15-200.55 18.45-21.9 39.86-41.2 63.62-57.27h346.46a311.214 311.214 0 0 1 63.62 57.27c22.02 26.11 39.81 55.91 52.33 88.34H415.33c-28.42 0-51.54 21.17-51.54 47.19v235.63c0 26.01 23.12 47.18 51.54 47.18H822v31.64z m0-51.64H415.33c-17.39 0-31.54-12.19-31.54-27.18V521.15c0-14.99 14.15-27.19 31.54-27.19h392.79c0.11 0.33 0.21 0.66 0.31 0.99 8.82 28.85 13.57 59.49 13.57 91.22v197.79z" fill="#BD7800" p-id="2765"></path></svg>