<?xml version="1.0" standalone="no"?><!DOCTYPE svg PUBLIC "-//W3C//DTD SVG 1.1//EN" "http://www.w3.org/Graphics/SVG/1.1/DTD/svg11.dtd"><svg t="1697504295774" class="icon" viewBox="0 0 1024 1024" version="1.1" xmlns="http://www.w3.org/2000/svg" p-id="1570" xmlns:xlink="http://www.w3.org/1999/xlink" width="128" height="128"><path d="M139.4 163.2c-5.9-0.6-11.8-1.3-17.6-1.7v-0.2c5.8 0.5 11.7 1.1 17.6 1.9zM481.7 530.3h-0.2c-0.2-5.9-0.6-11.8-1.3-17.4 0.6 5.6 1 11.5 1.5 17.4zM396.8 860c-13.2 13.4-27.7 26-43 37.8L341 881.2V860h55.8z" fill="#efb336" p-id="1571"></path><path d="M328.1 864.3h160.4v42H328.1z" fill="#efb336" p-id="1572"></path><path d="M923.3 192.6c-1.8-0.1-3.7-0.3-5.6-0.4-179.7-0.4-337.2 108.9-402.9 269.4C474.5 268 306.9 123.3 101.3 118.3c-3.8-0.2-7.6-0.2-11.5-0.2l-10.7-0.4v21.6c0.2 230.4 175.4 416.8 402.6 433C476.2 688 421 793.4 328.1 864.4l12.8 16.8V860h55.9c59.6-59 100-133.1 117.4-214.4 14.7 60.3 15.5 123.7 2.5 184.8h42.7c16.6-86.2 8.3-176-24.2-257.5 201-9.7 369.6-156.5 405.7-355.7l4-21.4-21.6-3.2zM481.4 530.3c-196.1-15.8-348.6-172-359.7-368.8v-0.2c5.9 0.4 11.8 1 17.6 1.9 6.5 0.8 12.8 1.7 19.3 2.9 6.5 0.8 12.8 2.3 19.1 3.8 6.3 1.3 12.4 2.9 18.5 4.6 6.3 1.5 12.2 3.4 18.3 5.5 6.1 1.9 12.2 4 18.1 6.5 5.9 2.1 11.6 4.6 17.2 7.1 5.9 2.3 11.3 5 17 8 5.7 2.5 11.1 5.5 16.6 8.8 5.5 2.7 10.7 5.9 16 9.4 5.3 3.2 10.5 6.5 15.5 10.3 17.6 12.2 34.4 26 50 41.2 11.5 11.3 49.6 58.8 52.7 64 3.6 5 6.9 10.3 9.9 15.8 3.4 5.3 14.9 27.3 17.4 33 2.7 5.7 18.1 45.4 19.7 50.8 2.1 6.7 8.6 33 9.9 39.3 2.5 12.6 4.4 25.6 5.7 38.6 0.6 5.7 1 11.5 1.5 17.4h-0.3z m54.9 0.6c41.4-165.7 186.1-285.8 358-295.9-41.4 165.9-186.3 286.1-358 295.9z" fill="#efb336" p-id="1573"></path></svg>