<?xml version="1.0" standalone="no"?><!DOCTYPE svg PUBLIC "-//W3C//DTD SVG 1.1//EN" "http://www.w3.org/Graphics/SVG/1.1/DTD/svg11.dtd"><svg t="1697116925323" class="icon" viewBox="0 0 1024 1024" version="1.1" xmlns="http://www.w3.org/2000/svg" p-id="1587" width="128" height="128" xmlns:xlink="http://www.w3.org/1999/xlink"><path d="M512.549624 0.699522C229.942813 0.699522 0.899385 229.742949 0.899385 512.349761s229.043427 511.650239 511.650239 511.650239 511.650239-229.043427 511.650239-511.650239c0-282.50688-229.143359-511.650239-511.650239-511.650239z m339.168147 850.818386c-44.069874 44.069874-95.33483 78.646238-152.495755 102.829706-59.159559 24.982922-121.916659 37.674246-186.672392 37.674246S384.93686 979.330536 325.877232 954.347614c-57.160925-24.183468-108.425881-58.759832-152.495754-102.829706-44.069874-44.069874-78.74617-95.33483-102.829707-152.395823-24.982922-59.159559-37.674246-121.916659-37.674246-186.672392S45.568849 384.836928 70.551771 325.777301c24.183468-57.160925 58.759832-108.425881 102.829707-152.495755 44.069874-44.069874 95.33483-78.646238 152.495754-102.829706 59.059627-25.082854 121.916659-37.774178 186.672392-37.774178s127.612765 12.691324 186.672392 37.674246c57.160925 24.183468 108.425881 58.759832 152.495755 102.829706 44.069874 44.069874 78.646238 95.33483 102.829706 152.495755 24.982922 59.159559 37.674246 121.916659 37.674246 186.672392s-12.691324 127.612765-37.674246 186.672392C930.364009 756.183078 895.787645 807.448034 851.717771 851.517908z" fill="#b7a803" p-id="1588"></path><path d="M751.486289 159.8907c-8.793988 0-15.98907 7.195081-15.98907 15.98907v655.551869c0 8.793988 7.195081 15.98907 15.98907 15.98907s15.98907-7.195081 15.98907-15.98907V175.87977c0-8.793988-7.195081-15.98907-15.98907-15.98907zM687.530009 815.442569h-95.93442c-8.793988 0-15.98907 7.195081-15.98907 15.98907s7.195081 15.98907 15.98907 15.98907h95.93442c8.793988 0 15.98907-7.195081 15.98907-15.98907s-7.195081-15.98907-15.98907-15.98907zM687.530009 687.530009h-95.93442c-8.793988 0-15.98907 7.195081-15.98907 15.98907s7.195081 15.98907 15.98907 15.98907h95.93442c8.793988 0 15.98907-7.195081 15.98907-15.98907s-7.195081-15.98907-15.98907-15.98907zM687.530009 559.617449h-95.93442c-8.793988 0-15.98907 7.195081-15.98907 15.98907s7.195081 15.98907 15.98907 15.98907h95.93442c8.793988 0 15.98907-7.195081 15.98907-15.98907s-7.195081-15.98907-15.98907-15.98907zM687.530009 431.704889h-95.93442c-8.793988 0-15.98907 7.195081-15.98907 15.98907s7.195081 15.98907 15.98907 15.98907h95.93442c8.793988 0 15.98907-7.195081 15.98907-15.98907s-7.195081-15.98907-15.98907-15.98907zM687.530009 303.792329h-95.93442c-8.793988 0-15.98907 7.195081-15.98907 15.98907s7.195081 15.98907 15.98907 15.98907h95.93442c8.793988 0 15.98907-7.195081 15.98907-15.98907s-7.195081-15.98907-15.98907-15.98907zM687.530009 751.486289h-47.96721c-8.793988 0-15.98907 7.195081-15.98907 15.98907s7.195081 15.98907 15.98907 15.98907h47.96721c8.793988 0 15.98907-7.195081 15.98907-15.98907s-7.195081-15.98907-15.98907-15.98907zM687.530009 623.573729h-47.96721c-8.793988 0-15.98907 7.195081-15.98907 15.98907s7.195081 15.98907 15.98907 15.98907h47.96721c8.793988 0 15.98907-7.195081 15.98907-15.98907s-7.195081-15.98907-15.98907-15.98907zM687.530009 495.661169h-47.96721c-8.793988 0-15.98907 7.195081-15.98907 15.98907s7.195081 15.98907 15.98907 15.98907h47.96721c8.793988 0 15.98907-7.195081 15.98907-15.98907s-7.195081-15.98907-15.98907-15.98907zM687.530009 367.748609h-47.96721c-8.793988 0-15.98907 7.195081-15.98907 15.98907s7.195081 15.98907 15.98907 15.98907h47.96721c8.793988 0 15.98907-7.195081 15.98907-15.98907s-7.195081-15.98907-15.98907-15.98907zM687.530009 239.83605h-47.96721c-8.793988 0-15.98907 7.195081-15.98907 15.98907s7.195081 15.98907 15.98907 15.98907h47.96721c8.793988 0 15.98907-7.195081 15.98907-15.98907s-7.195081-15.98907-15.98907-15.98907zM383.737679 351.759539c52.863863 0 95.93442-43.070557 95.93442-95.934419s-43.070557-95.93442-95.93442-95.93442-95.93442 43.070557-95.93442 95.93442 43.070557 95.93442 95.93442 95.934419z m0-159.890699c35.275886 0 63.95628 28.680394 63.95628 63.95628s-28.680394 63.95628-63.95628 63.956279-63.95628-28.680394-63.95628-63.956279 28.680394-63.95628 63.95628-63.95628zM483.669367 367.748609H283.805992c-15.38948 0-27.980872 12.591393-27.980872 27.980873v211.855177c0 15.38948 12.591393 27.980872 27.980872 27.980872h19.986337v183.874305c0 15.38948 12.591393 27.980872 27.980873 27.980873h103.928955c15.38948 0 27.980872-12.591393 27.980872-27.980873V635.565531h19.986338c15.38948 0 27.980872-12.591393 27.980872-27.980872V395.729482c0-15.38948-12.591393-27.980872-27.980872-27.980873z m-3.997268 235.838782h-31.97814c-8.793988 0-15.98907 7.195081-15.98907 15.98907v195.866108h-95.93442V619.576461c0-8.793988-7.195081-15.98907-15.98907-15.98907h-31.97814V399.726749h191.86884v203.860642z" fill="#b7a803" p-id="1589"></path></svg>