<?xml version="1.0" standalone="no"?><!DOCTYPE svg PUBLIC "-//W3C//DTD SVG 1.1//EN" "http://www.w3.org/Graphics/SVG/1.1/DTD/svg11.dtd"><svg t="1694853962329" class="icon" viewBox="0 0 1286 1024" version="1.1" xmlns="http://www.w3.org/2000/svg" p-id="11787" xmlns:xlink="http://www.w3.org/1999/xlink" width="160.75" height="128"><path d="M643.086523 1002.75893A545.963045 545.963045 0 0 1 97.723932 457.39634V42.48244a21.316127 21.316127 0 0 1 21.316127-21.166013h1047.942814a21.316127 21.316127 0 0 1 21.316126 21.316126v414.763787A545.963045 545.963045 0 0 1 643.086523 1002.75893z" fill="#FFFFFF" p-id="11788"></path><path d="M1166.982873 42.48244v414.9139a524.046464 524.046464 0 0 1-1048.092928 0V42.48244h1048.092928m0-42.48214H119.040059a42.48214 42.48214 0 0 0-42.632253 42.48214v414.9139a566.528603 566.528603 0 0 0 1133.20732 0V42.48244A42.48214 42.48214 0 0 0 1166.982873 0.0003z" p-id="11789"></path><path d="M191.094571 107.181387V465.352359a453.342973 453.342973 0 0 0 451.841838 451.541611A453.342973 453.342973 0 0 0 1094.92836 465.352359V107.181387z" fill="#E1E7EA" p-id="11790"></path><path d="M448.239112 964.780198a21.46624 21.46624 0 0 1-7.956019-1.501136 543.861455 543.861455 0 0 1-342.559161-505.882722v-2.251704A21.316127 21.316127 0 0 1 126.095397 435.329646c75.056784 26.119761 180.136281 74.005989 258.345449 153.716293 99.225068 100.726204 127.446419 222.16808 84.213711 361.023129a21.316127 21.316127 0 0 1-20.265331 15.011357z" fill="#FFFFFF" p-id="11791"></path><path d="M119.040059 455.144636c134.051416 47.13566 423.32026 186.441051 329.199053 488.469549A525.397486 525.397486 0 0 1 119.040059 457.39634v-2.251704m0-42.482139a42.48214 42.48214 0 0 0-42.48214 42.482139v2.251704a565.027468 565.027468 0 0 0 355.919269 525.397486 42.48214 42.48214 0 0 0 56.592814-26.870329c45.03407-145.009706 15.011357-277.109645-90.06814-382.339256C318.090649 491.322006 210.158994 441.784529 133.000621 414.9142a42.48214 42.48214 0 0 0-14.110676-2.401817z" p-id="11792"></path><path d="M163.473675 517.59188v1.65125a391.195957 391.195957 0 0 0 244.985342 361.773697c69.952922-224.72001-145.15982-328.298372-244.985342-363.424947z" fill="#F6C343" p-id="11793"></path><path d="M837.783819 964.780198a21.316127 21.316127 0 0 1-20.265331-15.011357c-43.232707-139.005163-15.011357-260.447039 84.213711-361.02313 78.509396-79.710304 183.739006-127.596532 258.195336-153.416065a21.316127 21.316127 0 0 1 28.371464 20.115218v2.251703a543.861455 543.861455 0 0 1-342.55916 505.882722 21.46624 21.46624 0 0 1-7.95602 1.200909z" fill="#FFFFFF" p-id="11794"></path><path d="M1166.982873 455.144636v2.251704a525.397486 525.397486 0 0 1-329.199054 486.067731c-94.121207-302.028498 195.147638-441.333888 329.199054-488.469548m0-42.48214a42.48214 42.48214 0 0 0-14.110676 2.401817c-76.557919 26.870329-185.090029 76.257692-266.451582 158.820155-103.578361 105.079497-135.102211 237.32955-90.06814 382.339256a42.48214 42.48214 0 0 0 56.592815 26.870328 565.027468 565.027468 0 0 0 355.919268-525.397485v-2.251704a42.48214 42.48214 0 0 0-42.48214-42.48214z" p-id="11795"></path><path d="M1127.653118 512.187792V510.386429c-103.728475 36.477597-327.547804 144.259138-255.193064 377.985963a406.957881 406.957881 0 0 0 255.193064-376.1846z" fill="#F6C343" p-id="11796"></path><path d="M21.316127 174.132038m21.316126 0l305.631223 0q21.316127 0 21.316127 21.316127l0 130.899031q0 21.316127-21.316127 21.316126l-305.631223 0q-21.316127 0-21.316126-21.316126l0-130.899031q0-21.316127 21.316126-21.316127Z" fill="#FFFFFF" p-id="11797"></path><path d="M348.263476 195.147938v131.049144H42.48214V195.147938H348.263476m0-42.48214H42.48214A42.48214 42.48214 0 0 0 0 195.147938v131.049144a42.48214 42.48214 0 0 0 42.48214 42.48214H348.263476a42.48214 42.48214 0 0 0 42.031799-42.332026V195.147938a42.48214 42.48214 0 0 0-42.482139-42.48214z" p-id="11798"></path><path d="M916.443329 174.132038m21.316126 0l305.631223 0q21.316127 0 21.316127 21.316127l0 130.899031q0 21.316127-21.316127 21.316126l-305.631223 0q-21.316127 0-21.316126-21.316126l0-130.899031q0-21.316127 21.316126-21.316127Z" fill="#FFFFFF" p-id="11799"></path><path d="M1243.390678 195.147938v131.049144H937.759455V195.147938h305.631223m0-42.48214H937.759455A42.48214 42.48214 0 0 0 895.277316 195.147938v131.049144a42.48214 42.48214 0 0 0 42.482139 42.48214h305.631223a42.48214 42.48214 0 0 0 42.48214-42.48214V195.147938a42.48214 42.48214 0 0 0-42.48214-42.48214z" p-id="11800"></path></svg>