<?xml version="1.0" standalone="no"?><!DOCTYPE svg PUBLIC "-//W3C//DTD SVG 1.1//EN" "http://www.w3.org/Graphics/SVG/1.1/DTD/svg11.dtd"><svg t="1697116397582" class="icon" viewBox="0 0 1024 1024" version="1.1" xmlns="http://www.w3.org/2000/svg" p-id="2446" xmlns:xlink="http://www.w3.org/1999/xlink" width="128" height="128"><path d="M856.462 555.045l-0.462-0.019v-205.23C856 302.608 817.895 264 771.323 264H252.677C206.105 264 168 302.608 168 349.796v205.23l-0.461 0.019-9.539 0.44v28.27c0 49.794 22.068 96.664 62.139 131.976C259.852 750.727 312.363 770 368 770h59.163l-1.887-10h173.448l-1.887 10H656c55.637 0 108.148-19.273 147.861-54.27C843.932 680.419 866 633.549 866 583.755v-28.27l-9.538-0.44z" fill="#FFFFFF" p-id="2447"></path><path d="M158 422.761v-90h240c11.028 0 20 8.972 20 20v50c0 11.028-8.972 20-20 20H158z m708 2v-90H626c-11.028 0-20 8.972-20 20v50c0 11.028 8.972 20 20 20h240z" fill="#FADA17" p-id="2448"></path><path d="M771.323 224H252.677C183.93 224 128 280.432 128 349.796v221.189c0 31.396 6.925 61.871 20.584 90.577 12.999 27.319 31.49 51.796 54.96 72.752 23.146 20.667 49.983 36.874 79.766 48.171C313.948 794.107 346.376 800 379.692 800h264.615c33.317 0 65.745-5.893 96.383-17.515 29.782-11.297 56.619-27.504 79.766-48.171 23.47-20.956 41.961-45.433 54.96-72.752C889.075 632.856 896 602.381 896 570.985V349.796C896 280.432 840.07 224 771.323 224zM608.9 760c20.971-111.154 118.566-195.238 235.815-195.238 3.784 0 7.544 0.099 11.285 0.272v5.951C856 674.943 760.739 760 644.308 760H608.9zM856 349.796v64.965H626c-5.5 0-10-4.5-10-10v-50c0-5.5 4.5-10 10-10h229.841c0.097 1.668 0.159 3.344 0.159 5.035zM252.677 264h518.646c37.985 0 70.329 25.687 80.968 60.761H626c-16.542 0-30 13.458-30 30v50c0 16.542 13.458 30 30 30h230v110.256c-3.913-0.169-7.62-0.255-11.285-0.255-31.052 0-61.437 5.424-90.309 16.121-27.893 10.334-53.647 25.301-76.546 44.485-46.061 38.589-77.531 92.188-88.613 150.924l-0.7 3.708H435.452l-0.7-3.708c-11.082-58.736-42.552-112.336-88.613-150.924-22.899-19.184-48.652-34.151-76.546-44.485-28.873-10.697-59.257-16.121-90.31-16.121-3.664 0-7.372 0.086-11.285 0.255V432.761h230c16.542 0 30-13.458 30-30v-50c0-16.542-13.458-30-30-30H172.359C183.605 288.718 215.42 264 252.677 264zM168 570.989v-5.955a244.16 244.16 0 0 1 11.285-0.272c117.249 0 214.843 84.084 235.815 195.238h-35.407c-116.43 0-211.69-85.054-211.693-189.011z m0.31-228.228H398c5.5 0 10 4.5 10 10v50c0 5.5-4.5 10-10 10H168v-62.965c0-2.37 0.122-4.712 0.31-7.035z" fill="#BD7800" p-id="2449"></path></svg>