<?xml version="1.0" standalone="no"?><!DOCTYPE svg PUBLIC "-//W3C//DTD SVG 1.1//EN" "http://www.w3.org/Graphics/SVG/1.1/DTD/svg11.dtd"><svg t="1696172447565" class="icon" viewBox="0 0 1024 1024" version="1.1" xmlns="http://www.w3.org/2000/svg" p-id="5654" xmlns:xlink="http://www.w3.org/1999/xlink" width="128" height="128"><path d="M456.533333 256C520.2432 198.536533 595.626667 169.813333 682.666667 169.813333V85.333333l256 170.666667-257.706667 256v-85.333333H597.333333c-155.869867-0.5632-241.2032 84.770133-256 256V512c0-29.576533 3.413333-58.026667 10.24-85.333333 14.216533-58.589867 44.373333-110.933333 90.453334-157.013334 4.5568-4.5568 9.386667-9.096533 14.506666-13.653333z" p-id="5655" fill="#d4d4f7"></path><path d="M500.906667 955.733333a17.0496 17.0496 0 0 1-12.066134-29.1328l267.093334-267.093333a17.0496 17.0496 0 1 1 24.132266 24.132267l-267.093333 267.093333a17.015467 17.015467 0 0 1-12.066133 5.000533zM341.333333 699.733333l-0.733866-0.017066A17.066667 17.066667 0 0 1 324.266667 682.666667V512c0-30.8224 3.618133-60.928 10.752-89.480533 14.865067-61.2864 46.830933-116.821333 94.941866-164.949334 4.778667-4.7616 9.813333-9.506133 15.1552-14.267733 62.429867-56.302933 136.533333-86.596267 220.484267-90.197333V85.333333a17.066667 17.066667 0 0 1 26.5216-14.199466l256 170.666666a17.066667 17.066667 0 0 1 2.56 26.299734l-257.706667 256A17.032533 17.032533 0 0 1 663.893333 512v-68.266667h-68.0448c-145.851733 0-223.5392 78.6432-237.5168 240.401067A17.066667 17.066667 0 0 1 341.333333 699.733333zM699.733333 117.230933V169.813333a17.066667 17.066667 0 0 1-17.066666 17.066667c-82.295467 0-154.538667 27.511467-214.698667 81.783467l-0.085333 0.068266c-4.864 4.334933-9.472 8.6528-13.806934 12.987734-43.605333 43.6224-72.533333 93.7472-85.930666 148.974933A336.213333 336.213333 0 0 0 358.4 512v31.744C400.878933 454.6048 480.3072 409.6 595.7632 409.6H680.96a17.066667 17.066667 0 0 1 17.066667 17.066667v44.322133l213.777066-212.3776L699.733333 117.230933z" p-id="5656" fill="#d4d4f7"></path><path d="M500.906667 955.733333H170.666667c-66.030933 0-102.4-36.369067-102.4-102.4V341.333333c0-66.030933 36.369067-102.4 102.4-102.4h171.52a17.066667 17.066667 0 0 1 0 34.133334H170.666667c-47.223467 0-68.266667 21.0432-68.266667 68.266666v68.266667h154.453333a17.066667 17.066667 0 0 1 0 34.133333H102.4v409.6c0 47.223467 21.0432 68.266667 68.266667 68.266667h312.32v-165.546667c0-66.030933 36.369067-102.4 102.4-102.4H768a17.066667 17.066667 0 0 1 17.066667 17.066667c0 10.786133-10.973867 19.387733-20.974934 17.066667H585.386667c-47.223467 0-68.266667 21.0432-68.266667 68.266666v178.8928a15.633067 15.633067 0 0 1 0.426667 3.720534c0 9.437867-7.2192 17.066667-16.64 17.066666z" p-id="5657" fill="#d4d4f7"></path></svg>