<?xml version="1.0" standalone="no"?><!DOCTYPE svg PUBLIC "-//W3C//DTD SVG 1.1//EN" "http://www.w3.org/Graphics/SVG/1.1/DTD/svg11.dtd"><svg t="1694872889514" class="icon" viewBox="0 0 1024 1024" version="1.1" xmlns="http://www.w3.org/2000/svg" p-id="23456" xmlns:xlink="http://www.w3.org/1999/xlink" width="128" height="128"><path d="M854.1 463H244.7V305.7c0-21.6 17.7-39.3 39.3-39.3h550.4c11.8 0 19.7 7.9 19.7 19.7V463z" fill="#FFC522" p-id="23457"></path><path d="M854.1 492.5h-39.3V268.4c0-17.7-13.8-31.5-33.4-31.5H256.5c-17.7 0-33.4 13.8-33.4 31.5v224.1h-39.3V268.4c0-39.3 31.5-70.8 72.7-70.8h524.9c39.3 0 72.7 31.5 72.7 70.8v224.1z" fill="" p-id="23458"></path><path d="M441.3 364.7c11.8 0 19.7 7.9 19.7 19.7v59H284v-59c0-11.8 7.9-19.7 19.7-19.7h137.6m0-39.3H303.7c-33.4 0-59 25.6-59 59v98.3h255.6v-98.3c-0.1-33.4-25.6-59-59-59zM736.1 364.7c11.8 0 19.7 7.9 19.7 19.7v59H578.9v-59c0-11.8 7.9-19.7 19.7-19.7h137.5m0-39.3H598.5c-33.4 0-59 25.6-59 59v98.3h255.6v-98.3c0-33.4-25.5-59-59-59z" fill="" p-id="23459"></path><path d="M755.8 482.7c86.5 0 157.3 70.8 157.3 157.3v78.6H126.7V640c0-86.5 70.8-157.3 157.3-157.3h471.8m0-39.3H284c-108.1 0-196.6 88.5-196.6 196.6v78.6c0 21.6 17.7 39.3 39.3 39.3H913c21.6 0 39.3-17.7 39.3-39.3V640c0.1-108.2-88.4-196.6-196.5-196.6z" fill="" p-id="23460"></path><path d="M244.7 816.8c-11.8 0-19.7-7.9-19.7-19.7v-39.3c0-11.8 7.9-19.7 19.7-19.7s19.7 7.9 19.7 19.7v39.3c0 11.9-7.9 19.7-19.7 19.7z" fill="" p-id="23461"></path><path d="M795.1 816.8c-11.8 0-19.7-7.9-19.7-19.7v-39.3c0-11.8 7.9-19.7 19.7-19.7s19.7 7.9 19.7 19.7v39.3c0 11.9-7.9 19.7-19.7 19.7z" fill="" p-id="23462"></path><path d="M913.1 718.6H205.4c-11.8 0-19.7-7.9-19.7-19.7v-59c0-55 43.2-98.3 98.3-98.3h550.4c43.2 0 78.6 35.4 78.6 78.6v98.4z" fill="#FFC522" p-id="23463"></path></svg>