<?xml version="1.0" standalone="no"?><!DOCTYPE svg PUBLIC "-//W3C//DTD SVG 1.1//EN" "http://www.w3.org/Graphics/SVG/1.1/DTD/svg11.dtd"><svg t="1697116287802" class="icon" viewBox="0 0 1024 1024" version="1.1" xmlns="http://www.w3.org/2000/svg" p-id="1377" xmlns:xlink="http://www.w3.org/1999/xlink" width="128" height="128"><path d="M960 240.882c0-22.091-17.909-40-40-40s-40 17.909-40 40c0 14.803 8.047 27.718 20 34.635v48.612c-3.23-0.66-6.58-1.01-10-1.01H134c-3.42 0-6.77 0.35-10 1.01v-48.612c11.953-6.917 20-19.832 20-34.635 0-22.091-17.909-40-40-40s-40 17.909-40 40c0 14.803 8.047 27.718 20 34.635V773.12c0 27.57 22.43 50 50 50h27.55c23.99 0 44.1-16.99 48.91-39.58h603.08c4.81 22.59 24.92 39.58 48.91 39.58H890c27.57 0 50-22.43 50-50V275.518c11.953-6.918 20-19.833 20-34.636zM900 773.12c0 5.5-4.5 10-10 10h-27.55c-5.5 0-10-4.5-10-10v-19.58c0-5.5-4.5-10-10-10h-660.9c-5.5 0-10 4.5-10 10v19.58c0 5.5-4.5 10-10 10H134c-5.5 0-10-4.5-10-10v-400c0-5.5 4.5-10 10-10h756c5.5 0 10 4.5 10 10v400zM656 456.882v180c0 5.5-4.5 10-10 10s-10-4.5-10-10v-180c0-5.5 4.5-10 10-10s10 4.5 10 10z m-268 0v180c0 5.5-4.5 10-10 10s-10-4.5-10-10v-180c0-5.5 4.5-10 10-10s10 4.5 10 10z m-76.34 75.028c-3.4-9.86-11.94-17.02-22.28-18.69-0.09-0.01-0.18-0.03-0.27-0.04l-14.15-2.09-6.25-12.74c-0.02-0.05-0.05-0.1-0.07-0.14-3.15-6.29-8.38-11.02-14.64-13.52v-27.81a9.93 9.93 0 0 0-2.94-7.06 9.93 9.93 0 0 0-7.06-2.94c-5.5 0-10 4.5-10 10v27.43c-6.7 2.39-12.33 7.27-15.63 13.89-0.03 0.05-0.05 0.1-0.07 0.15l-6.25 12.74-14.16 2.09c-0.09 0.01-0.18 0.03-0.27 0.04-10.44 1.68-19 8.96-22.34 18.98-3.45 10.35-0.7 21.48 7.17 29.06l10.12 9.81-2.43 13.97c-0.01 0.05-0.02 0.09-0.02 0.14-1.41 8.43 0.99 16.85 6.56 23.13 5.42 6.1 13.15 9.59 21.21 9.59 4.79 0 9.3-1.16 13.41-3.46L234 613v23.88a9.93 9.93 0 0 0 2.94 7.06 9.93 9.93 0 0 0 7.06 2.94c5.5 0 10-4.5 10-10v-23.49l2.27 1.19c4.14 2.2 8.53 3.32 13.05 3.32 8.38 0 16.18-3.69 21.49-10.14 5.3-6.22 7.55-14.45 6.18-22.68 0-0.02-0.01-0.05-0.01-0.07l-2.38-13.98 10.17-9.99c0.05-0.04 0.09-0.09 0.14-0.13 7.59-7.6 10.21-18.64 6.82-28.81-0.03-0.06-0.05-0.13-0.07-0.19z m-20.89 14.86l-15.99 15.68c-1.09 1-1.49 2.39-1.29 3.78l3.77 22.14c0.4 2.38-0.2 4.77-1.79 6.55a7.83 7.83 0 0 1-6.15 2.98c-1.19 0-2.38-0.3-3.67-0.99L254 590.79l-8.41-4.41c-0.5-0.29-1.19-0.49-1.99-0.49-0.69 0-1.49 0.2-1.98 0.39l-7.62 4.06-12.34 6.57c-1.19 0.69-2.38 0.99-3.77 0.99-2.39 0-4.67-1.09-6.26-2.88s-2.18-4.17-1.79-6.55l3.88-22.24c0.19-1.39-0.3-2.78-1.29-3.78l-16.09-15.58c-2.28-2.19-3.08-5.37-2.09-8.34 1-2.98 3.48-5.07 6.56-5.56l22.24-3.28c1.39-0.2 2.68-1.09 3.28-2.29l7.67-15.66 2.25-4.59c1.39-2.78 4.18-4.47 7.25-4.47 3.08 0 5.86 1.69 7.25 4.47l3.25 6.63 6.68 13.62c0.7 1.3 1.89 2.09 3.28 2.29l22.24 3.28c3.08 0.49 5.56 2.58 6.55 5.46 0.99 2.97 0.2 6.15-1.98 8.34zM790 485.07v-28.19a9.93 9.93 0 0 0-2.94-7.06 9.93 9.93 0 0 0-7.06-2.94c-5.5 0-10 4.5-10 10v23.29c-0.5-0.04-0.99-0.05-1.48-0.02-8.22 0.54-14.66 7.4-14.66 15.63 0 3.67 1.3 7.24 3.61 10.04 0.36 0.52 0.78 1 1.25 1.44 5.36 5.1 8.32 12.01 8.32 19.46 0 14.8-11.77 26.84-26.24 26.84-7.18 0-13.86-2.95-18.82-8.31a9.865 9.865 0 0 0-1.67-1.44 15.417 15.417 0 0 0-9.98-3.64c-8.24 0-15.04 6.51-15.48 14.82-0.03 0.46-0.02 0.93 0.02 1.39 1.51 17.41 9.33 33.55 22.03 45.44 12.82 12.02 29.51 18.63 46.97 18.63 2.06 0 4.11-0.09 6.13-0.28v16.71a9.93 9.93 0 0 0 2.94 7.06 9.93 9.93 0 0 0 7.06 2.94c5.5 0 10-4.5 10-10v-21.62c25.3-10.48 43.17-35.71 43.17-65.09 0-17.65-6.48-34.52-18.25-47.51-7.01-7.75-15.53-13.71-24.92-17.59z m0 107.72a48.496 48.496 0 0 1-20 7.28c-2.01 0.25-4.05 0.38-6.13 0.38-21.04 0-39.49-13.91-46.38-33.36 7.01 4.18 15.07 6.47 23.31 6.47 11.06 0 21.23-3.96 29.2-10.55a47.012 47.012 0 0 0 17.04-36.29c0-8.59-2.26-16.78-6.51-23.92a47.85 47.85 0 0 1 9.47 4.65c14.03 8.86 23.17 24.68 23.17 42.72 0 17.94-9.26 33.72-23.17 42.62zM522 481.34v-24.46a9.93 9.93 0 0 0-2.94-7.06 9.93 9.93 0 0 0-7.06-2.94c-5.5 0-10 4.5-10 10v24.46c-33.7 4.86-59.67 33.93-59.67 68.95 0 35.03 25.97 64.09 59.67 68.95v17.64a9.93 9.93 0 0 0 2.94 7.06 9.93 9.93 0 0 0 7.06 2.94c5.5 0 10-4.5 10-10v-17.64c33.7-4.86 59.67-33.92 59.67-68.95 0-35.02-25.97-64.09-59.67-68.95z m0 117.61a49.953 49.953 0 0 1-20 0c-22.61-4.64-39.67-24.69-39.67-48.66s17.06-44.02 39.67-48.66a49.953 49.953 0 0 1 20 0c22.61 4.64 39.67 24.69 39.67 48.66 0 23.97-17.06 44.02-39.67 48.66z" fill="#BD7800" p-id="1378"></path></svg>