<?xml version="1.0" standalone="no"?><!DOCTYPE svg PUBLIC "-//W3C//DTD SVG 1.1//EN" "http://www.w3.org/Graphics/SVG/1.1/DTD/svg11.dtd"><svg t="1695660727982" class="icon" viewBox="0 0 1024 1024" version="1.1" xmlns="http://www.w3.org/2000/svg" p-id="2292" xmlns:xlink="http://www.w3.org/1999/xlink" width="128" height="128"><path d="M785.868461 730.917942H80.94045a2.87549 2.87549 0 0 1-2.86628-2.866281V234.354516a2.87549 2.87549 0 0 1 2.86628-2.866281h704.929034c1.575892 0 2.865257 1.289366 2.865258 2.866281v493.698168a2.87549 2.87549 0 0 1-2.866281 2.865258z" fill="#F7D11E" p-id="2293"></path><path d="M751.505839 744.212736H115.314329c-27.863604 0-50.53393-22.663162-50.53393-50.52779V268.724301c0-27.863604 22.670326-50.53393 50.53393-50.53393h636.19151c27.863604 0 50.520627 22.670326 50.520627 50.53393v424.960645c0.001023 27.863604-22.657023 50.52779-50.520627 50.52779zM115.314329 244.782006c-13.204743 0-23.942295 10.737552-23.942295 23.942295v424.960645c0 13.198603 10.737552 23.936155 23.942295 23.936155h636.19151c13.19144 0 23.930015-10.737552 23.930015-23.936155V268.724301c0-13.204743-10.737552-23.942295-23.930015-23.942295H115.314329z" fill="#885F44" p-id="2294"></path><path d="M942.036243 844.881506H237.108233a2.87549 2.87549 0 0 1-2.866281-2.86628V348.31808a2.87549 2.87549 0 0 1 2.866281-2.86628h704.929034a2.87549 2.87549 0 0 1 2.86628 2.86628v493.698169a2.87549 2.87549 0 0 1-2.867304 2.865257z" fill="#F7D11E" p-id="2295"></path><path d="M907.665435 858.180394H271.472901c-27.863604 0-50.520627-22.670326-50.520627-50.53393V382.684796c0-27.863604 22.657023-50.52779 50.520627-50.52779h636.192534c27.863604 0 50.53393 22.663162 50.53393 50.52779v424.961668c0 27.863604-22.670326 50.53393-50.53393 50.53393zM271.472901 358.74864c-13.19144 0-23.930015 10.737552-23.930015 23.936156v424.961668c0 13.204743 10.737552 23.942295 23.930015 23.942295h636.192534c13.204743 0 23.942295-10.737552 23.942295-23.942295V382.684796c0-13.198603-10.737552-23.936155-23.942295-23.936156H271.472901z" fill="#885F44" p-id="2296"></path><path d="M405.334655 748.574067L519.383154 551.036062c5.479805-9.491165 19.178805-9.491165 24.65861 0l114.048499 197.536981c5.479805 9.491165-1.370207 21.355377-12.329817 21.355378H417.664471c-10.959609 0.001023-17.809621-11.863189-12.329816-21.354354z" fill="#885F44" p-id="2297"></path><path d="M819.602773 705.841823L673.91774 453.40958c-7.000438-12.125155-24.499997-12.174274-31.500435-0.049118l-68.642356 119.062699 92.793406 160.895457H803.852044c14.000875 0 22.751167-15.352663 15.750729-27.476795z" fill="#885F44" p-id="2298"></path></svg>