<?xml version="1.0" standalone="no"?><!DOCTYPE svg PUBLIC "-//W3C//DTD SVG 1.1//EN" "http://www.w3.org/Graphics/SVG/1.1/DTD/svg11.dtd"><svg t="1694872985087" class="icon" viewBox="0 0 1024 1024" version="1.1" xmlns="http://www.w3.org/2000/svg" p-id="28397" xmlns:xlink="http://www.w3.org/1999/xlink" width="128" height="128"><path d="M960 572.5C960 820 759.4 960 512 960S64 820 64 572.5 148.8 64 512 64s448 261.1 448 508.5z" fill="#FFFFFF" p-id="28398"></path><path d="M512 112.4c150.1 0 254.9 46 320.4 140.6 52.5 75.9 79.2 183.4 79.2 319.5 0 102.6-39.2 188.6-113.3 248.9-71.4 58.1-173.1 90.1-286.2 90.1s-214.8-32-286.2-90.1C151.8 761.1 112.6 675 112.6 572.5c0-136.1 26.6-243.6 79.2-319.5 65.3-94.6 170.1-140.6 320.2-140.6m0-48.4C148.8 64 64 325.1 64 572.5 64 820 264.6 960 512 960s448-140 448-387.5C960 325.1 875.2 64 512 64z" fill="#15927F" p-id="28399"></path><path d="M512 669.4c-33.4 0-60.5-27.2-60.5-60.5 0-6.7 5.4-12.1 12.1-12.1s12.1 5.4 12.1 12.1c0 20 16.3 36.3 36.3 36.3s36.3-16.3 36.3-36.3c0-6.7 5.4-12.1 12.1-12.1s12.1 5.4 12.1 12.1c0 33.3-27.1 60.5-60.5 60.5z" fill="#15927F" p-id="28400"></path><path d="M390.9 512m-36.3 0a36.3 36.3 0 1 0 72.6 0 36.3 36.3 0 1 0-72.6 0Z" fill="#15927F" p-id="28401"></path><path d="M633.1 512m-36.3 0a36.3 36.3 0 1 0 72.6 0 36.3 36.3 0 1 0-72.6 0Z" fill="#15927F" p-id="28402"></path><path d="M342.5 572.5h-48.4c-13.4 0-24.2 10.8-24.2 24.2 0 13.4 10.8 24.2 24.2 24.2h48.4c13.4 0 24.2-10.8 24.2-24.2 0-13.3-10.8-24.2-24.2-24.2zM729.9 572.5h-48.4c-13.4 0-24.2 10.8-24.2 24.2 0 13.4 10.8 24.2 24.2 24.2h48.4c13.4 0 24.2-10.8 24.2-24.2 0.1-13.3-10.8-24.2-24.2-24.2z" fill="#F0F4C3" p-id="28403"></path><path d="M449.4 370.5c-21.8 0-28.8-6.5-32.5-14.1-8.4-17.4 7.4-30.1 27.5-46 8.3-6.6 24.1-19.2 29.9-27.2-5-1.1-12.8-2-18.5-2.6-22.9-2.4-54.4-5.8-73.2-29.9-17.8-22.8-18.7-57.1-2.8-102 3.4-9.5 13.7-14.4 23.2-11 9.5 3.4 14.4 13.7 11 23.2-11.3 32-12.3 55.3-2.8 67.5 9.3 12 30.1 14.2 48.4 16.2 20.6 2.2 44 4.7 51.3 25.3 8.3 23.3-12.6 43.6-34.8 61.7 34.3-5.8 86-20.7 122.2-46 21.7-15.2 33.5-31.2 34.8-47.5 0.8-9.4-1.7-35.1-42.1-69.4-7.7-6.5-8.6-18-2.1-25.6 6.5-7.6 17.9-8.6 25.6-2.1 51.3 43.6 56.3 81.4 54.8 100.1-6.2 73.6-117 113.3-181.5 125.2-16.3 3-28.8 4.2-38.4 4.2z" fill="#15927F" p-id="28404"></path><path d="M185.1 784.4m-121.1 0a121.1 121.1 0 1 0 242.2 0 121.1 121.1 0 1 0-242.2 0Z" fill="#F0F4C3" p-id="28405"></path><path d="M185.1 699.7c46.7 0 84.8 38 84.8 84.8s-38 84.8-84.8 84.8-84.8-38-84.8-84.8 38-84.8 84.8-84.8m0-36.3c-66.9 0-121.1 54.2-121.1 121s54.2 121.1 121.1 121.1 121.1-54.2 121.1-121.1-54.2-121-121.1-121z" fill="#15927F" p-id="28406"></path><path d="M838.9 784.4m-121.1 0a121.1 121.1 0 1 0 242.2 0 121.1 121.1 0 1 0-242.2 0Z" fill="#F0F4C3" p-id="28407"></path><path d="M838.9 699.7c46.7 0 84.8 38 84.8 84.8s-38 84.8-84.8 84.8c-46.7 0-84.8-38-84.8-84.8s38.1-84.8 84.8-84.8m0-36.3c-66.9 0-121.1 54.2-121.1 121.1s54.2 121 121.1 121S960 851.3 960 784.4s-54.2-121-121.1-121z" fill="#15927F" p-id="28408"></path></svg>