<?xml version="1.0" standalone="no"?><!DOCTYPE svg PUBLIC "-//W3C//DTD SVG 1.1//EN" "http://www.w3.org/Graphics/SVG/1.1/DTD/svg11.dtd"><svg t="1695909797014" class="icon" viewBox="0 0 1024 1024" version="1.1" xmlns="http://www.w3.org/2000/svg" p-id="6123" xmlns:xlink="http://www.w3.org/1999/xlink" width="128" height="128"><path d="M811.313131 85.333333h-598.626262C150.238384 85.333333 99.555556 136.145455 99.555556 198.464646v627.070708c0 62.319192 50.682828 113.131313 113.131313 113.131313h598.626262c62.319192 0 113.131313-50.682828 113.131313-113.131313v-627.070708c0-62.319192-50.682828-113.131313-113.131313-113.131313zM872.727273 825.535354c0 33.874747-27.539394 61.414141-61.414142 61.414141h-598.626262C178.812121 886.949495 151.272727 859.410101 151.272727 825.535354v-627.070708c0-33.874747 27.539394-61.414141 61.414142-61.414141h598.626262c33.874747 0 61.414141 27.539394 61.414142 61.414141v627.070708z" fill="#a8a3f0" p-id="6124"></path><path d="M802.521212 297.373737c-5.947475-3.232323-146.876768-80.678788-291.167677-80.678788S226.262626 294.141414 220.315152 297.373737c-11.636364 6.464646-16.420202 20.686869-11.248485 32.840404L276.686869 487.175758c2.844444 6.723232 8.533333 11.894949 15.515151 14.222222 2.715152 0.905051 5.559596 1.422222 8.274748 1.422222 4.39596 0 8.791919-1.163636 12.670707-3.361616 0.775758-0.517172 82.876768-45.769697 198.335353-45.769697 114.165657 0 196.913131 44.993939 198.335354 45.769697 6.335354 3.620202 13.963636 4.266667 20.945454 1.939394 6.981818-2.327273 12.541414-7.49899 15.515152-14.222222l67.620202-156.961617c5.042424-12.153535 0.258586-26.375758-11.377778-32.840404z m-93.220202 144.808081c-36.20202-15.515152-107.830303-40.080808-197.818182-40.080808-18.488889 0-36.20202 1.034343-53.010101 2.844445l-26.246464-87.272728c-4.137374-13.705051-18.488889-21.462626-32.19394-17.325252-13.705051 4.137374-21.462626 18.488889-17.325252 32.193939l24.30707 80.549495c-40.468687 8.533333-72.662626 20.29899-93.349495 29.090909L266.343434 332.153535c42.666667-20.557576 144.808081-63.741414 245.010101-63.741414s202.472727 43.183838 245.139394 63.612121L709.30101 442.181818z" fill="#a8a3f0" p-id="6125"></path></svg>