<?xml version="1.0" standalone="no"?><!DOCTYPE svg PUBLIC "-//W3C//DTD SVG 1.1//EN" "http://www.w3.org/Graphics/SVG/1.1/DTD/svg11.dtd"><svg t="1694873042315" class="icon" viewBox="0 0 1024 1024" version="1.1" xmlns="http://www.w3.org/2000/svg" p-id="29637" xmlns:xlink="http://www.w3.org/1999/xlink" width="128" height="128"><path d="M269.03 484.076l391.777-325.632L896.23 441.688 504.455 767.32a151.129 151.129 0 0 1-212.826-19.622l-42.24-50.82a151.129 151.129 0 0 1 19.642-212.802z" fill="#FFFFFF" p-id="29638"></path><path d="M406.78 820.09a167.63 167.63 0 0 1-129.53-60.81l-42.06-50.83c-59-71.35-49-177.42 22.33-236.45l405.11-335.19 256.18 309.62L513.7 781.62a167.24 167.24 0 0 1-106.92 38.47z m251.33-635.41L279.19 498.2c-56.9 47.08-64.89 131.67-17.81 188.57l42.06 50.84c47.08 56.9 131.68 64.89 188.58 17.81l378.91-313.51z" fill="#231815" p-id="29639"></path><path d="M487.806 303.566L660.4 160.783l145.906 176.37L634.483 479.3a103.38 103.38 0 0 1-145.536-13.785l-14.756-17.838a102.35 102.35 0 0 1 13.615-144.11z" fill="#7EC6A0" p-id="29640"></path><path d="M568.82 519q-5.7 0-11.44-0.54a118.61 118.61 0 0 1-80.75-42.75l-14.76-17.84A118.35 118.35 0 0 1 477.6 291.2l184.9-153 166.31 201-184.1 152.36A118.47 118.47 0 0 1 568.82 519z m89.42-335.69L498 315.86a86.35 86.35 0 0 0-11.48 121.58l14.77 17.85a87.39 87.39 0 0 0 123 11.62L783.76 335z" fill="#68BE92" p-id="29641"></path><path d="M406.78 820.09a167.63 167.63 0 0 1-129.53-60.81l-42.06-50.83c-59-71.35-49-177.42 22.33-236.45l405.11-335.19 256.18 309.62L513.7 781.62a167.24 167.24 0 0 1-106.92 38.47z m251.33-635.41L279.19 498.2c-56.9 47.08-64.89 131.67-17.81 188.57l42.06 50.84c47.08 56.9 131.68 64.89 188.58 17.81l378.91-313.51z" fill="#231815" p-id="29642"></path><path d="M959.44 529a17 17 0 0 1-13.13-6.2l-345.4-419.69a17 17 0 1 1 26.25-21.61l345.4 419.7a17 17 0 0 1-13.12 27.8z" fill="#231815" p-id="29643"></path><path d="M772.68 302.06a17 17 0 0 1-10.51-30.38l81.12-63.62a17 17 0 1 1 21 26.75l-81.11 63.62a16.9 16.9 0 0 1-10.5 3.63zM182.09 806.42a17 17 0 0 1-10.5-30.42l81.12-63.62a17 17 0 0 1 21 26.75l-81.14 63.67a16.92 16.92 0 0 1-10.48 3.62z" fill="#231815" p-id="29644"></path><path d="M916 290.88a17 17 0 0 1-13.3-6.4L797.93 153.17A17 17 0 1 1 824.51 132l104.74 131.28a17 17 0 0 1-13.25 27.6zM691.79 463.83a17 17 0 0 1-13.36-6.48l-77.75-98.61a17 17 0 0 1 26.7-21.05l77.75 98.61a17 17 0 0 1-13.34 27.53zM538.09 588.12a17 17 0 0 1-13.37-6.47L447 483a17 17 0 0 1 26.67-21l77.75 98.61a17 17 0 0 1-13.33 27.53z" fill="#231815" p-id="29645"></path></svg>